<?xml version="1.0" encoding="UTF-8"?>
<svg width="64px" height="58px" viewBox="0 0 64 58" version="1.1" xmlns="http://www.w3.org/2000/svg" xmlns:xlink="http://www.w3.org/1999/xlink">
    <!-- Generator: Sketch 43.1 (39012) - http://www.bohemiancoding.com/sketch -->
    <title>crown</title>
    <desc>Created with Sketch.</desc>
    <defs></defs>
    <g id="Page-1" stroke="none" stroke-width="1" fill="none" fill-rule="evenodd">
        <g id="crown" transform="translate(-1.000000, 0.000000)" fill-rule="nonzero" fill="#3EB5AC">
            <path d="M58.093,57.583 L8.244,57.583 C7.245,57.583 6.4,57.056 6.263,56.065 L1.353,20.774 C1.251,20.044 1.561,19.369 2.157,18.935 C2.753,18.501 3.541,18.456 4.204,18.778 L21.496,27.14 L30.992,7.145 C31.326,6.456 32.025,5.582 32.79,5.582 L32.791,5.582 C33.556,5.582 34.254,6.46 34.589,7.148 L44.299,27.303 L62.124,18.696 C62.79,18.373 63.579,18.497 64.176,18.928 C64.775,19.363 65.086,20.118 64.985,20.85 L60.076,56.052 C59.937,57.041 59.091,57.583 58.093,57.583 Z M9.986,53.583 L56.351,53.583 L60.505,23.843 L44.256,31.893 C43.778,32.125 43.228,32.212 42.727,32.04 C42.225,31.867 41.812,31.528 41.58,31.051 L32.794,13.027 L24.223,30.689 C23.742,31.682 22.548,32.103 21.554,31.62 L5.828,23.82 L9.986,53.583 Z" id="Shape"></path>
            <path d="M28.018,51.583 L13.486,51.583 C12.991,51.583 12.57,51.429 12.497,50.94 L11.144,42.044 C11.062,41.498 11.438,41.041 11.984,40.959 C12.522,40.886 13.039,41.07 13.121,41.617 L14.346,49.583 L28.017,49.583 C28.569,49.583 29.017,50.03 29.017,50.583 C29.017,51.136 28.57,51.583 28.018,51.583 Z" id="Shape"></path>
            <path d="M11.519,38.178 C11.033,38.178 10.606,37.823 10.532,37.327 L9.928,33.327 C9.845,32.781 10.221,32.271 10.767,32.188 C11.312,32.116 11.823,32.482 11.905,33.028 L12.509,37.028 C12.592,37.574 12.216,38.084 11.67,38.167 C11.619,38.174 11.569,38.178 11.519,38.178 Z" id="Shape"></path>
            <path d="M2.998,16.18 C2.478,16.18 1.958,15.96 1.588,15.59 C1.218,15.22 0.998,14.7 0.998,14.18 C0.998,13.65 1.218,13.14 1.588,12.76 C2.328,12.02 3.668,12.02 4.418,12.76 C4.788,13.14 4.998,13.65 4.998,14.18 C4.998,14.701 4.788,15.22 4.418,15.59 C4.038,15.96 3.528,16.18 2.998,16.18 Z" id="Shape"></path>
            <path d="M62.998,16.18 C62.478,16.18 61.958,15.96 61.588,15.59 C61.219,15.22 60.998,14.7 60.998,14.18 C60.998,13.65 61.219,13.14 61.588,12.76 C62.338,12.02 63.668,12.02 64.418,12.76 C64.788,13.14 64.998,13.65 64.998,14.18 C64.998,14.701 64.788,15.22 64.418,15.59 C64.038,15.96 63.528,16.18 62.998,16.18 Z" id="Shape"></path>
            <path d="M32.998,4.18 C32.478,4.18 31.958,3.96 31.588,3.59 C31.218,3.22 30.998,2.71 30.998,2.18 C30.998,1.65 31.218,1.13 31.588,0.76 C32.328,0.02 33.668,0.02 34.418,0.76 C34.788,1.13 34.998,1.65 34.998,2.18 C34.998,2.71 34.788,3.22 34.418,3.59 C34.038,3.96 33.528,4.18 32.998,4.18 Z" id="Shape"></path>
        </g>
    </g>
</svg>