<?xml version="1.0" encoding="UTF-8" standalone="no"?>
<svg width="48px" height="48px" viewBox="0 0 48 48" version="1.1" xmlns="http://www.w3.org/2000/svg" xmlns:xlink="http://www.w3.org/1999/xlink">
    <!-- Generator: Sketch 39.1 (31720) - http://www.bohemiancoding.com/sketch -->
    <title>hamburgerbutton</title>
    <desc>Created with Sketch.</desc>
    <defs></defs>
    <g id="Page-1" stroke="none" stroke-width="1" fill="none" fill-rule="evenodd">
        <g id="hamburgerbutton" fill="#33CCCC">
            <path d="M6,14 L6,14 C6,15.104 6.896,16 8,16 L40,16 C41.104,16 42,15.104 42,14 C42,12.895 41.104,12 40,12 L8,12 C6.896,12 6,12.895 6,14 L6,14 Z M8,26 L40,26 C41.104,26 42,25.104 42,24 C42,22.895 41.104,22 40,22 L8,22 C6.896,22 6,22.895 6,24 C6,25.104 6.896,26 8,26 L8,26 Z M8,36 L40,36 C41.104,36 42,35.104 42,34 C42,32.895 41.104,32 40,32 L8,32 C6.896,32 6,32.895 6,34 C6,35.104 6.896,36 8,36 L8,36 Z" id="Imported-Layers"></path>
        </g>
    </g>
</svg>