<?xml version="1.0" encoding="UTF-8"?>
<svg width="64px" height="58px" viewBox="0 0 64 58" version="1.1" xmlns="http://www.w3.org/2000/svg" xmlns:xlink="http://www.w3.org/1999/xlink">
    <!-- Generator: Sketch 43.1 (39012) - http://www.bohemiancoding.com/sketch -->
    <title>group</title>
    <desc>Created with Sketch.</desc>
    <defs></defs>
    <g id="Page-1" stroke="none" stroke-width="1" fill="none" fill-rule="evenodd">
        <g id="group" fill-rule="nonzero" fill="#3EB5AC">
            <path d="M31.801,27.099 C38.531,27.099 42.053,17.118 42.053,11.767 C42.053,5.467 37.453,0.341 31.801,0.341 C26.147,0.341 21.546,5.467 21.546,11.767 C21.546,17.117 25.068,27.099 31.801,27.099 Z M31.801,4.341 C35.254,4.341 38.053,7.665 38.053,11.767 C38.053,15.867 35.254,23.099 31.801,23.099 C28.346,23.099 25.547,15.867 25.547,11.767 C25.547,7.665 28.346,4.341 31.801,4.341 Z" id="Shape"></path>
            <path d="M42.1,34.093 C41.405,33.595 40.586,33.372 39.766,33.372 C39.021,33.372 38.274,33.596 37.618,34.014 C35.848,35.143 33.837,35.746 31.8,35.746 C29.764,35.746 27.752,35.154 25.982,34.025 C25.325,33.607 24.579,33.403 23.833,33.403 C23.014,33.403 22.195,33.655 21.5,34.154 C16.345,37.857 13.265,46.943 13.265,53.705 C13.265,55.914 15.056,57.583 17.265,57.583 L46.338,57.583 C48.547,57.583 50.338,55.914 50.338,53.705 C50.336,46.943 47.256,37.796 42.1,34.093 Z M17.263,53.583 C17.263,47.583 19.876,40.123 23.831,37.283 C26.174,38.773 28.894,39.633 31.799,39.633 C34.705,39.633 37.426,38.774 39.766,37.283 C43.721,40.123 46.336,47.583 46.336,53.583 L17.263,53.583 Z" id="Shape"></path>
            <path d="M27.92,41.391 C27.314,41.147 26.717,40.838 26.149,40.476 C25.804,40.256 25.36,40.268 25.028,40.507 C21.964,42.71 20.596,45.931 20.596,50.95 C20.596,51.503 21.044,51.95 21.596,51.95 C22.149,51.95 22.596,51.503 22.596,50.95 C22.596,46.889 23.526,44.325 25.682,42.527 C26.168,42.8 26.666,43.042 27.172,43.246 C27.686,43.451 28.268,43.205 28.474,42.692 C28.68,42.179 28.433,41.598 27.92,41.391 Z" id="Shape"></path>
            <path d="M31.799,42.146 C31.464,42.146 31.133,42.128 30.805,42.098 C30.255,42.044 29.768,42.452 29.717,43.002 C29.666,43.552 30.071,44.039 30.621,44.09 C31.01,44.126 31.402,44.146 31.799,44.146 C32.351,44.146 32.799,43.699 32.799,43.146 C32.799,42.593 32.351,42.146 31.799,42.146 Z" id="Shape"></path>
            <path d="M54.867,34.813 C54.297,34.483 53.544,34.478 52.948,34.759 C52.687,34.882 51.704,35.134 51.176,35.269 C50.509,35.443 49.932,35.582 49.527,35.736 C48.493,36.126 47.971,37.262 48.36,38.296 C48.748,39.329 49.9,39.819 50.936,39.434 C51.14,39.357 51.714,39.146 52.176,39.029 C52.715,38.888 53.179,38.643 53.578,38.526 C56.707,41.02 59.109,47.584 59.717,51.584 L54.073,51.584 C52.969,51.584 52.073,52.48 52.073,53.584 C52.073,54.688 52.969,55.584 54.073,55.584 L61.867,55.584 C62.971,55.584 63.867,54.935 63.867,53.83 C63.867,48.111 60.361,38.01 54.867,34.813 Z" id="Shape"></path>
            <path d="M13.715,38.318 C14.103,37.284 13.579,36.124 12.545,35.736 C12.418,35.688 12.333,35.609 12.107,35.431 C11.861,35.24 11.525,34.948 11.059,34.705 C10.452,34.389 9.725,34.346 9.132,34.691 C3.639,37.888 0.133,48.111 0.133,53.83 C0.133,54.934 1.029,55.583 2.133,55.583 L6.073,55.583 C7.177,55.583 8.073,54.687 8.073,53.583 C8.073,52.479 7.177,51.583 6.073,51.583 L4.282,51.583 C4.873,47.583 7.157,41.375 10.157,38.744 C10.419,38.918 10.738,39.341 11.139,39.491 C12.175,39.881 13.326,39.353 13.715,38.318 Z" id="Shape"></path>
            <path d="M16.706,30.096 C16.905,30.121 17.128,30.135 17.367,30.135 C19.068,30.135 21.656,29.415 23.471,26.693 C24.084,25.774 23.835,24.532 22.916,23.92 C21.998,23.308 20.756,23.557 20.143,24.475 C18.939,26.282 17.33,26.145 17.191,26.126 C17.084,26.108 16.975,26.1 16.866,26.1 C15.327,26.1 12.614,20.705 12.614,16.768 C12.614,13.776 14.521,11.342 16.866,11.342 C17.97,11.342 18.866,10.446 18.866,9.342 C18.866,8.238 17.97,7.342 16.866,7.342 C12.316,7.342 8.614,11.571 8.614,16.768 C8.614,21.417 11.682,29.918 16.706,30.096 Z" id="Shape"></path>
            <path d="M40.506,23.919 C39.586,24.531 39.338,25.773 39.951,26.692 C41.765,29.416 44.353,30.134 46.055,30.134 C46.295,30.134 46.518,30.12 46.717,30.095 C51.74,29.917 54.809,21.416 54.809,16.766 C54.809,11.569 51.107,7.34 46.557,7.34 C45.452,7.34 44.557,8.236 44.557,9.34 C44.557,10.444 45.452,11.34 46.557,11.34 C48.901,11.34 50.809,13.774 50.809,16.766 C50.809,20.704 48.096,26.098 46.557,26.098 C46.448,26.098 46.338,26.107 46.231,26.124 C46.215,26.13 44.529,26.346 43.28,24.473 C42.666,23.555 41.425,23.304 40.506,23.919 Z" id="Shape"></path>
        </g>
    </g>
</svg>