<svg xmlns="http://www.w3.org/2000/svg" xmlns:xlink="http://www.w3.org/1999/xlink" version="1.1" x="0px" y="0px" viewBox="0 0 80 80" enable-background="new 0 0 80 80" xml:space="preserve"><g><g><path fill="#ffffff" d="M27.272,62.728c-2.671,0-5.182-1.041-7.071-2.929c-3.899-3.899-3.899-10.243,0-14.142l4.95-4.95    c1.889-1.889,4.4-2.929,7.071-2.929s5.183,1.04,7.071,2.928c3.899,3.9,3.899,10.244,0,14.143l-4.95,4.95    C32.454,61.688,29.943,62.728,27.272,62.728z M32.222,41.778c-1.603,0-3.109,0.624-4.243,1.757l-4.95,4.95    c-2.339,2.339-2.339,6.146,0,8.485c1.133,1.133,2.64,1.757,4.243,1.757s3.109-0.625,4.243-1.757l4.95-4.95    c2.339-2.339,2.339-6.146,0-8.486C35.332,42.402,33.825,41.778,32.222,41.778z"></path></g><g><path fill="#ffffff" d="M47.778,42.222c-2.671,0-5.183-1.041-7.071-2.929c-3.899-3.9-3.899-10.244,0-14.143l4.95-4.95    c1.889-1.889,4.4-2.929,7.071-2.929s5.182,1.04,7.071,2.929c3.899,3.899,3.899,10.243,0,14.142l-4.95,4.95    C52.96,41.182,50.449,42.222,47.778,42.222z M52.728,21.272c-1.603,0-3.109,0.624-4.243,1.757l-4.95,4.95    c-2.339,2.339-2.339,6.146,0,8.486c1.133,1.133,2.64,1.757,4.243,1.757c1.603,0,3.109-0.625,4.243-1.757l4.95-4.95    c2.339-2.339,2.339-6.146,0-8.485C55.837,21.896,54.331,21.272,52.728,21.272z"></path></g><g><rect x="25" y="38" transform="matrix(0.7071 -0.7071 0.7071 0.7071 -16.5685 40)" fill="#ffffff" width="30" height="4"></rect></g></g></svg>
