<?xml version="1.0" encoding="UTF-8"?>
<svg width="58px" height="82px" viewBox="0 0 58 82" version="1.1" xmlns="http://www.w3.org/2000/svg" xmlns:xlink="http://www.w3.org/1999/xlink">
    <!-- Generator: Sketch 42 (36781) - http://www.bohemiancoding.com/sketch -->
    <title>Group</title>
    <desc>Created with Sketch.</desc>
    <defs></defs>
    <g id="Page-1" stroke="none" stroke-width="1" fill="none" fill-rule="evenodd">
        <g id="Group" fill-rule="nonzero" fill="#BDC3C7">
            <path d="M6.5,35.7 C8.2,35.7 9.9,35.1 11.1,33.8 L28.9,15.8 L46.9,33.8 C49.4,36.3 53.6,36.3 56.1,33.8 C58.6,31.3 58.6,27.1 56.1,24.6 L33.5,2 C32.3,0.8 30.6,0.1 28.9,0.1 L28.9,0.1 C27.2,0.1 25.5,0.8 24.3,2 L1.9,24.7 C-0.6,27.3 -0.6,31.4 2,33.9 C3.2,35.1 4.8,35.7 6.5,35.7 Z" id="Shape"></path>
            <path d="M24.5,79.8 C25.7,81 27.4,81.7 29.1,81.7 L29.1,81.7 C30.8,81.7 32.5,81 33.7,79.8 L56.1,57.1 C58.6,54.5 58.6,50.4 56,47.9 C53.4,45.4 49.3,45.4 46.8,48 L29.1,66 L11.1,48 C8.6,45.5 4.4,45.5 1.9,48 C-0.6,50.5 -0.6,54.7 1.9,57.2 L24.5,79.8 Z" id="Shape"></path>
        </g>
    </g>
</svg>