<?xml version="1.0" encoding="UTF-8"?>
<svg width="64px" height="64px" viewBox="0 0 64 64" version="1.1" xmlns="http://www.w3.org/2000/svg" xmlns:xlink="http://www.w3.org/1999/xlink">
    <!-- Generator: Sketch 43.1 (39012) - http://www.bohemiancoding.com/sketch -->
    <title>diagram</title>
    <desc>Created with Sketch.</desc>
    <defs></defs>
    <g id="Page-1" stroke="none" stroke-width="1" fill="none" fill-rule="evenodd">
        <g id="diagram" fill-rule="nonzero" fill="#3EB5AC">
            <path d="M60.182,18.754 C54.994,7.928 43.664,0.583 31.665,0.583 L31.583,0.583 L31.583,0.599 C27.046,0.683 22.62,1.902 18.496,3.879 C10.938,7.502 5.222,13.953 2.44,21.858 C-0.341,29.763 0.112,38.33 3.734,45.888 C8.923,56.713 20.03,63.734 32.039,63.734 C36.749,63.734 41.303,62.709 45.58,60.66 C53.138,57.037 58.831,50.663 61.613,42.758 C64.395,34.853 63.805,26.312 60.182,18.754 Z M56.701,20.546 C59.208,25.776 59.9,31.405 59.039,36.728 L34.105,31.249 L43.699,7.638 C49.193,10.228 53.87,14.641 56.701,20.546 Z M32.034,59.76 C21.829,59.76 12.037,54.029 7.331,44.21 C0.795,30.577 6.547,14.228 20.184,7.692 C24,5.863 28.031,4.997 31.998,4.996 C34.715,4.996 37.399,5.414 39.969,6.196 L29.507,31.939 C29.498,31.96 29.496,31.983 29.487,32.005 C29.466,32.061 29.45,32.118 29.434,32.175 C29.426,32.205 29.413,32.232 29.406,32.262 C29.404,32.273 29.405,32.283 29.402,32.294 C29.396,32.326 29.392,32.357 29.387,32.389 C29.378,32.447 29.375,32.506 29.371,32.564 C29.368,32.606 29.362,32.649 29.362,32.691 C29.362,32.72 29.364,32.748 29.366,32.777 C29.368,32.834 29.376,32.89 29.384,32.947 C29.39,32.991 29.391,33.036 29.4,33.08 C29.405,33.108 29.414,33.134 29.421,33.162 C29.434,33.215 29.452,33.267 29.469,33.319 C29.483,33.362 29.493,33.405 29.51,33.447 C29.523,33.478 29.539,33.507 29.553,33.537 C29.563,33.558 29.567,33.58 29.578,33.6 L41.971,57.868 C38.723,59.142 35.356,59.76 32.034,59.76 Z M45.583,56.146 L35.067,35.555 L58.113,40.619 C56.098,47 51.761,52.627 45.583,56.146 Z" id="Shape"></path>
            <path d="M31.583,0.583 L31.583,0.599 C31.749,0.596 31.914,0.583 32.08,0.583 L31.583,0.583 Z" id="Shape"></path>
            <path d="M22.089,11.67 C21.023,12.182 19.991,12.776 19.026,13.438 C18.57,13.75 18.454,14.373 18.765,14.828 C18.958,15.111 19.272,15.264 19.591,15.264 C19.785,15.264 19.982,15.207 20.154,15.089 C21.037,14.485 21.978,13.942 22.954,13.474 C23.452,13.236 23.662,12.638 23.423,12.14 C23.184,11.642 22.589,11.428 22.089,11.67 Z" id="Shape"></path>
            <path d="M14.846,17.118 C8.687,24.051 7.298,33.937 11.308,42.305 C11.48,42.663 11.837,42.872 12.21,42.872 C12.355,42.872 12.502,42.841 12.642,42.773 C13.14,42.535 13.35,41.937 13.111,41.439 C9.451,33.801 10.719,24.775 16.342,18.446 C16.708,18.033 16.671,17.401 16.258,17.034 C15.845,16.668 15.214,16.704 14.846,17.118 Z" id="Shape"></path>
            <path d="M43.671,13.389 L37.671,27.389 C37.453,27.896 37.689,28.484 38.196,28.702 C38.324,28.758 38.458,28.783 38.59,28.783 C38.978,28.783 39.347,28.556 39.509,28.177 L45.509,14.177 C45.727,13.67 45.491,13.082 44.984,12.864 C44.48,12.645 43.889,12.88 43.671,13.389 Z" id="Shape"></path>
        </g>
    </g>
</svg>