<?xml version="1.0" encoding="UTF-8"?>
<svg width="44px" height="40px" viewBox="0 0 44 40" version="1.1" xmlns="http://www.w3.org/2000/svg" xmlns:xlink="http://www.w3.org/1999/xlink">
    <g stroke="none" stroke-width="1" fill="none" fill-rule="evenodd">
        <g id="icon-right-arrow" fill-rule="nonzero" fill="#3EB5AC">
            <path d="M44.000005,19.99472 C43.972005,19.27972 43.677705,18.45332 43.187505,17.93212 L27.187505,0.93136 C26.103305,-0.04294 24.024285,-0.44514 22.812485,0.68136 C21.618885,1.79086 21.654385,3.94266 22.843485,5.05656 L34.093505,16.99466 L2.999985,16.99466 C1.343185,16.99466 -1.5e-05,18.33782 -1.5e-05,19.99472 C-1.5e-05,21.65162 1.343185,22.99482 2.999985,22.99482 L34.093505,22.99482 L22.843485,34.93292 C21.819785,35.95842 21.630585,38.18592 22.812485,39.30812 C23.994085,40.43022 26.147805,40.07172 27.187505,39.05802 L43.187505,22.05732 C43.735005,21.47552 44.001805,20.79292 44.000005,19.99472 L44.000005,19.99472 Z" id="Shape" transform="translate(22.000000, 19.999985) scale(-1, 1) translate(-22.000000, -19.999985) "></path>
        </g>
    </g>
</svg>
