<?xml version="1.0" encoding="UTF-8"?>
<svg width="74px" height="74px" viewBox="0 0 74 74" version="1.1" xmlns="http://www.w3.org/2000/svg" xmlns:xlink="http://www.w3.org/1999/xlink">
    <g id="Page-1" stroke="none" stroke-width="1" fill="none" fill-rule="evenodd">
        <g id="icon-add" fill="#3EB5AC" fill-rule="nonzero">
            <path d="M37,0.35 C16.7587639,0.35 0.35,16.7587639 0.35,37 C0.35,57.2412361 16.7587639,73.65 37,73.65 C57.2412361,73.65 73.65,57.2412361 73.65,37 C73.6279547,16.7679024 57.2320976,0.372045345 37,0.35 Z M37,69.64 C23.7933978,69.6399994 11.8873909,61.6839998 6.83437774,49.4823033 C1.78136458,37.2806067 4.57659332,23.2364753 13.9165015,13.8994278 C23.2564096,4.56238025 37.3013966,1.77145372 49.5015447,6.82820433 C61.7016928,11.8849549 69.6540449,23.7933984 69.65,37 C69.6334605,55.0252418 55.0252418,69.6334605 37,69.65 L37,69.64 Z" id="Shape"></path>
            <path d="M53.5,35 L39,35 L39,20.5 C39,19.3954305 38.1045695,18.5 37,18.5 C35.8954305,18.5 35,19.3954305 35,20.5 L35,35 L20.5,35 C19.3954305,35 18.5,35.8954305 18.5,37 C18.5,38.1045695 19.3954305,39 20.5,39 L35,39 L35,53.5 C35,54.6045695 35.8954305,55.5 37,55.5 C38.1045695,55.5 39,54.6045695 39,53.5 L39,39 L53.5,39 C54.6045695,39 55.5,38.1045695 55.5,37 C55.5,35.8954305 54.6045695,35 53.5,35 Z" id="Shape"></path>
        </g>
    </g>
</svg>
