<?xml version="1.0" encoding="UTF-8"?>
<svg width="66px" height="64px" viewBox="0 0 66 64" version="1.1" xmlns="http://www.w3.org/2000/svg" xmlns:xlink="http://www.w3.org/1999/xlink">
    <!-- Generator: Sketch 43.1 (39012) - http://www.bohemiancoding.com/sketch -->
    <title>rating</title>
    <desc>Created with Sketch.</desc>
    <defs></defs>
    <g id="Page-1" stroke="none" stroke-width="1" fill="none" fill-rule="evenodd">
        <g id="rating" fill-rule="nonzero" fill="#3EB5AC">
            <path d="M63.208,59.583 L61.583,59.583 L61.583,15.373 C61.583,11.258 57.919,7.781 53.583,7.781 C49.245,7.781 45.583,11.258 45.583,15.373 L45.583,59.583 L43.583,59.583 L43.583,26.373 C43.583,22.258 39.919,18.781 35.583,18.781 C31.246,18.781 27.583,22.258 27.583,26.373 L27.583,59.583 L25.583,59.583 L25.583,37.372 C25.583,33.257 21.92,29.781 17.583,29.781 C13.247,29.781 9.583,33.258 9.583,37.372 L9.583,59.583 L4.583,59.583 L4.583,55.583 L7.208,55.583 C7.76,55.583 8.208,55.136 8.208,54.583 C8.208,54.03 7.76,53.583 7.208,53.583 L4.583,53.583 L4.583,45.583 L7.208,45.583 C7.76,45.583 8.208,45.136 8.208,44.583 C8.208,44.03 7.76,43.583 7.208,43.583 L4.583,43.583 L4.583,37.583 L7.208,37.583 C7.76,37.583 8.208,37.136 8.208,36.583 C8.208,36.03 7.76,35.583 7.208,35.583 L4.583,35.583 L4.583,29.583 L7.208,29.583 C7.76,29.583 8.208,29.136 8.208,28.583 C8.208,28.03 7.76,27.583 7.208,27.583 L4.583,27.583 L4.583,19.583 L7.208,19.583 C7.76,19.583 8.208,19.136 8.208,18.583 C8.208,18.03 7.76,17.583 7.208,17.583 L4.583,17.583 L4.583,9.583 L7.208,9.583 C7.76,9.583 8.208,9.136 8.208,8.583 C8.208,8.03 7.76,7.583 7.208,7.583 L4.583,7.583 L4.583,2.208 C4.583,1.104 3.687,0.208 2.583,0.208 C1.479,0.208 0.583,1.104 0.583,2.208 L0.583,62.208 C0.583,63.313 2.104,63.583 3.208,63.583 L63.208,63.583 C64.313,63.583 65.208,62.687 65.208,61.583 C65.208,60.478 64.313,59.583 63.208,59.583 Z M49.583,15.373 C49.583,13.46 51.452,11.781 53.583,11.781 C55.714,11.781 57.583,13.46 57.583,15.373 L57.583,59.583 L49.583,59.583 L49.583,15.373 Z M31.583,26.373 C31.583,24.46 33.452,22.781 35.583,22.781 C37.714,22.781 39.583,24.46 39.583,26.373 L39.583,59.583 L31.583,59.583 L31.583,26.373 Z M13.583,37.372 C13.583,35.459 15.452,33.781 17.583,33.781 C19.714,33.781 21.583,35.46 21.583,37.372 L21.583,59.583 L13.583,59.583 L13.583,37.372 L13.583,37.372 Z" id="Shape"></path>
            <path d="M54.583,18.208 C54.03,18.208 53.583,18.655 53.583,19.208 L53.583,33.208 C53.583,33.761 54.03,34.208 54.583,34.208 C55.134,34.208 55.583,33.761 55.583,33.208 L55.583,19.208 C55.583,18.656 55.134,18.208 54.583,18.208 Z" id="Shape"></path>
            <path d="M36.583,30.208 C36.031,30.208 35.583,30.655 35.583,31.208 L35.583,41.208 C35.583,41.761 36.031,42.208 36.583,42.208 C37.134,42.208 37.583,41.761 37.583,41.208 L37.583,31.208 C37.583,30.656 37.134,30.208 36.583,30.208 Z" id="Shape"></path>
            <path d="M18.583,39.208 C18.031,39.208 17.583,39.655 17.583,40.208 L17.583,47.208 C17.583,47.761 18.031,48.208 18.583,48.208 C19.135,48.208 19.583,47.761 19.583,47.208 L19.583,40.208 C19.583,39.655 19.135,39.208 18.583,39.208 Z" id="Shape"></path>
        </g>
    </g>
</svg>