<?xml version="1.0" encoding="UTF-8"?>
<svg width="22px" height="17px" viewBox="0 0 22 17" version="1.1" xmlns="http://www.w3.org/2000/svg" xmlns:xlink="http://www.w3.org/1999/xlink">
    <!-- Generator: Sketch 44.1 (41455) - http://www.bohemiancoding.com/sketch -->
    <title>smiley</title>
    <desc>Created with Sketch.</desc>
    <defs></defs>
    <g id="Page-1" stroke="none" stroke-width="1" fill="none" fill-rule="evenodd">
        <g id="smiley" fill="#3498DB">
            <g id="Group">
                <rect id="Rectangle" x="1" y="13" width="20" height="4" rx="2"></rect>
                <path d="M2.4,4.8 C1.3,4.8 0.4,3.9 0.4,2.8 L0.4,2.6 C0.4,1.5 1.3,0.6 2.4,0.6 C3.5,0.6 4.4,1.5 4.4,2.6 L4.4,2.8 C4.4,3.9 3.5,4.8 2.4,4.8 Z" id="Shape" fill-rule="nonzero"></path>
                <path d="M19.6,4.8 C18.5,4.8 17.6,3.9 17.6,2.8 L17.6,2.6 C17.6,1.5 18.5,0.6 19.6,0.6 C20.7,0.6 21.6,1.5 21.6,2.6 L21.6,2.8 C21.6,3.9 20.7,4.8 19.6,4.8 Z" id="Shape" fill-rule="nonzero"></path>
            </g>
        </g>
    </g>
</svg>