<?xml version="1.0" encoding="UTF-8"?>
<svg width="22px" height="19px" viewBox="0 0 22 19" version="1.1" xmlns="http://www.w3.org/2000/svg" xmlns:xlink="http://www.w3.org/1999/xlink">
    <!-- Generator: Sketch 44.1 (41455) - http://www.bohemiancoding.com/sketch -->
    <title>smiley</title>
    <desc>Created with Sketch.</desc>
    <defs></defs>
    <g id="Page-1" stroke="none" stroke-width="1" fill="none" fill-rule="evenodd">
        <g id="smiley" fill-rule="nonzero" fill="#2ECC71">
            <g id="Group">
                <path d="M2.4,4.8 C1.3,4.8 0.4,3.9 0.4,2.8 L0.4,2.6 C0.4,1.5 1.3,0.6 2.4,0.6 C3.5,0.6 4.4,1.5 4.4,2.6 L4.4,2.8 C4.4,3.9 3.5,4.8 2.4,4.8 Z" id="Shape"></path>
                <path d="M19.6,4.8 C18.5,4.8 17.6,3.9 17.6,2.8 L17.6,2.6 C17.6,1.5 18.5,0.6 19.6,0.6 C20.7,0.6 21.6,1.5 21.6,2.6 L21.6,2.8 C21.6,3.9 20.7,4.8 19.6,4.8 Z" id="Shape"></path>
            </g>
            <path d="M11,18.9 C7.6,18.9 4.2,17.6 1.6,15 C0.8,14.2 0.8,13 1.6,12.2 C2.4,11.4 3.6,11.4 4.4,12.2 C8.1,15.9 14,15.9 17.7,12.2 C18.5,11.4 19.7,11.4 20.5,12.2 C21.3,13 21.3,14.2 20.5,15 C17.8,17.6 14.4,18.9 11,18.9 Z" id="Shape"></path>
        </g>
    </g>
</svg>