<?xml version="1.0" encoding="UTF-8"?>
<svg width="97px" height="102px" viewBox="0 0 97 102" version="1.1" xmlns="http://www.w3.org/2000/svg" xmlns:xlink="http://www.w3.org/1999/xlink">
    <!-- Generator: Sketch 43.1 (39012) - http://www.bohemiancoding.com/sketch -->
    <title>Group</title>
    <desc>Created with Sketch.</desc>
    <defs></defs>
    <g id="Page-1" stroke="none" stroke-width="1" fill="none" fill-rule="evenodd">
        <g id="Group" fill-rule="nonzero">
            <g id="medal" transform="translate(24.000000, 23.000000)">
                <path d="M8.929,8.583 L11.929,8.583 C12.482,8.583 12.929,8.136 12.929,7.583 C12.929,7.03 12.482,6.583 11.929,6.583 L8.929,6.583 C8.376,6.583 7.929,7.03 7.929,7.583 C7.929,8.136 8.376,8.583 8.929,8.583 Z" id="Shape" fill="#A2F1EB"></path>
                <path d="M16.929,8.583 L24.929,8.583 C25.482,8.583 25.929,8.136 25.929,7.583 C25.929,7.03 25.482,6.583 24.929,6.583 L16.929,6.583 C16.376,6.583 15.929,7.03 15.929,7.583 C15.929,8.136 16.376,8.583 16.929,8.583 Z" id="Shape" fill="#A2F1EB"></path>
                <path d="M28.074,41.893 L25.103,41.45 L23.816,38.654 C23.49,37.944 22.78,37.49 22,37.49 C21.22,37.49 20.51,37.944 20.184,38.653 L18.896,41.449 L15.926,41.892 C15.18,42.004 14.56,42.527 14.322,43.244 C14.086,43.961 14.273,44.75 14.806,45.284 L16.971,47.452 L16.263,50.612 C16.088,51.392 16.396,52.203 17.045,52.671 C17.393,52.922 17.804,53.049 18.215,53.049 C18.57,53.049 18.927,52.954 19.245,52.764 L22.014,51.1 L24.978,52.788 C25.286,52.964 25.627,53.05 25.967,53.05 C26.402,53.05 26.834,52.908 27.193,52.63 C27.832,52.135 28.11,51.304 27.897,50.525 L27.053,47.428 L29.193,45.285 C29.726,44.751 29.914,43.962 29.677,43.245 C29.44,42.527 28.82,42.005 28.074,41.893 Z M25.202,46.451 C24.986,46.667 24.889,46.971 24.938,47.269 L25.967,51.048 L22.471,49.058 C22.325,48.98 22.162,48.941 21.999,48.941 C21.836,48.941 21.674,48.98 21.527,49.058 L18.214,51.048 L19.06,47.269 C19.11,46.97 19.012,46.666 18.796,46.451 L16.22,43.871 L19.735,43.346 C20.056,43.297 20.333,43.096 20.47,42.809 L22,39.49 L23.528,42.808 C23.666,43.095 23.942,43.296 24.263,43.345 L27.778,43.87 L25.202,46.451 Z" id="Shape" fill="#A2F1EB"></path>
                <path d="M34.874,30.213 L38.149,26.986 C38.538,26.609 38.583,26.091 38.583,25.55 L38.583,16.496 C41.583,15.447 44.036,12.282 44.036,8.739 C44.036,4.328 40.428,0.582 36.037,0.582 L7.962,0.582 C3.571,0.582 0.036,4.328 0.036,8.739 C0.036,12.291 2.583,15.464 5.583,16.505 L5.583,25.55 C5.583,26.091 5.975,26.609 6.363,26.986 L9.505,29.9 C5.042,33.54 2.176,39.076 2.176,45.269 C2.176,56.205 11.069,65.102 22.005,65.102 C32.941,65.102 41.836,56.205 41.836,45.269 C41.835,39.247 39.125,33.854 34.874,30.213 Z M27.583,26.231 L27.583,16.583 L34.583,16.583 L34.583,24.705 L31.542,27.85 C30.299,27.17 28.583,26.634 27.583,26.231 Z M25.583,16.583 L25.583,25.767 C24.583,25.562 23.271,25.437 22.071,25.437 C20.879,25.437 19.583,25.561 18.583,25.763 L18.583,16.583 L25.583,16.583 Z M4,8.583 C4,6.374 5.774,4.583 7.962,4.583 L35.512,4.583 L35.828,4.558 C38.017,4.558 39.895,6.557 39.895,8.766 C39.895,10.974 38.226,12.583 36.037,12.583 L7.962,12.583 C5.774,12.583 4,10.791 4,8.583 Z M9.583,24.705 L9.583,16.583 L16.583,16.583 L16.583,26.226 C15.583,26.6 14.047,27.097 12.875,27.714 L9.583,24.705 Z M22,61.103 C13.255,61.103 6.167,54.016 6.167,45.27 C6.167,36.524 13.255,29.437 22,29.437 C30.745,29.437 37.833,36.524 37.833,45.27 C37.833,54.016 30.745,61.103 22,61.103 Z" id="Shape" fill="#3EB5AC"></path>
                <path d="M19.5,34.637 C19.527,34.637 19.555,34.636 19.583,34.634 C19.829,34.613 20.081,34.603 20.333,34.603 C20.886,34.603 21.333,34.156 21.333,33.603 C21.333,33.05 20.886,32.603 20.333,32.603 C20.026,32.603 19.72,32.616 19.419,32.64 C18.869,32.686 18.459,33.168 18.504,33.719 C18.547,34.241 18.984,34.637 19.5,34.637 Z" id="Shape" fill="#A2F1EB"></path>
                <path d="M16.584,35.419 C17.086,35.189 17.307,34.595 17.076,34.093 C16.845,33.59 16.25,33.372 15.75,33.601 C11.852,35.39 9.333,39.316 9.333,43.604 C9.333,44.157 9.78,44.604 10.333,44.604 C10.886,44.604 11.333,44.157 11.333,43.604 C11.333,40.095 13.395,36.883 16.584,35.419 Z" id="Shape" fill="#A2F1EB"></path>
            </g>
            <g id="star" opacity="0.452162591" transform="translate(5.000000, 79.000000)" fill="#80C2BD">
                <path d="M14.6088281,6.601875 C14.8586719,6.3515625 14.9463281,5.98171875 14.8354688,5.645625 C14.7246094,5.30953125 14.43375,5.06460937 14.0838281,5.01234375 L10.1632031,4.42640625 C10.1135156,4.41890625 10.0708594,4.39078125 10.0509375,4.35210938 L8.35125,0.662578125 C8.19820312,0.33 7.86585938,0.1171875 7.49976563,0.1171875 C7.13367188,0.1171875 6.80132813,0.330234375 6.64804687,0.662578125 L4.9490625,4.35234375 C4.92890625,4.39101562 4.88625,4.41914062 4.83679688,4.42640625 L0.9159375,5.01234375 C0.566015625,5.06460937 0.27515625,5.30953125 0.164296875,5.645625 C0.053203125,5.98171875 0.140859375,6.3515625 0.3909375,6.60210937 L3.26390625,9.48 C3.28804688,9.50414062 3.3,9.53367187 3.29859375,9.56320312 L2.36320313,13.7402344 C2.28117188,14.1063281 2.4253125,14.4857812 2.72953125,14.7051562 C2.89265625,14.8230469 3.0853125,14.8825781 3.27820313,14.8825781 C3.44484375,14.8825781 3.61171875,14.8382813 3.76078125,14.7489844 L7.42921875,12.5470313 C7.45148437,12.5369531 7.475625,12.5317969 7.49976563,12.5317969 C7.52601562,12.5317969 7.55273437,12.5378906 7.57617188,12.5496094 L11.4623438,14.76 C11.6067188,14.8422656 11.7665625,14.8825781 11.9257031,14.8825781 C12.1296094,14.8825781 12.3323437,14.81625 12.500625,14.6857031 C12.7996875,14.4536719 12.93,14.0641406 12.8303906,13.6985156 L11.7011719,9.55359375 C11.7025781,9.52710938 11.7147656,9.50109375 11.7353906,9.48023438 L14.6088281,6.601875 Z M10.7775,9.73101562 L11.9259375,13.9453125 L8.02617187,11.7271875 C7.86210938,11.6388281 7.6809375,11.5945312 7.49976563,11.5945312 C7.3190625,11.5945312 7.13789063,11.6388281 6.97382813,11.7271875 L3.27820312,13.9453125 L4.22203125,9.73101562 C4.27804688,9.39820313 4.16859375,9.0590625 3.92742187,8.81789063 L1.0546875,5.93976562 L4.9753125,5.35382813 C5.33320313,5.30039063 5.641875,5.07539062 5.79585938,4.755 L7.49976563,1.0546875 L9.20414062,4.755 C9.358125,5.07539062 9.66632812,5.30039063 10.0246875,5.35382813 L13.9453125,5.93976562 L11.0725781,8.81765625 C10.8314062,9.05882812 10.7219531,9.39820313 10.7775,9.73101562 Z" id="Shape"></path>
                <path d="M7.22039063,3.97757812 C7.10648438,3.91570313 6.96421875,3.9571875 6.90234375,4.07109375 L5.99789063,5.728125 C5.9165625,5.89710938 5.754375,6.015 5.56382813,6.04335938 L3.9825,6.27960938 C3.85429688,6.29882812 3.76617188,6.418125 3.78515625,6.54609375 C3.8025,6.66234375 3.90257813,6.74578125 4.01671875,6.74578125 C4.02820313,6.74578125 4.03992188,6.74507813 4.05140625,6.74320313 L5.63273438,6.50695313 C5.97703125,6.45539063 6.27117188,6.24023438 6.41460938,5.941875 L7.31367188,4.29539062 C7.37578125,4.18195312 7.33382813,4.0396875 7.22039063,3.97757812 Z" id="Shape"></path>
                <path d="M7.57429687,2.8640625 C7.4559375,2.80921875 7.3171875,2.86148438 7.26351562,2.97890625 L7.09359375,3.3478125 C7.03945312,3.46523438 7.09078125,3.60445313 7.2084375,3.65859375 C7.2403125,3.67335938 7.27335937,3.68015625 7.30617187,3.68015625 C7.395,3.68015625 7.47984375,3.62953125 7.51921875,3.54375 L7.68914062,3.17484375 C7.74351562,3.0571875 7.69195312,2.91820313 7.57429687,2.8640625 Z" id="Shape"></path>
            </g>
            <g id="star" opacity="0.527060688" transform="translate(6.000000, 16.000000)" fill="#80C2BD">
                <path d="M13.6349063,6.16175 C13.8680938,5.928125 13.9499062,5.5829375 13.8464375,5.26925 C13.7429687,4.9555625 13.4715,4.72696875 13.1449063,4.6781875 L9.48565625,4.1313125 C9.43928125,4.1243125 9.39946875,4.0980625 9.380875,4.06196875 L7.7945,0.61840625 C7.65165625,0.308 7.34146875,0.109375 6.99978125,0.109375 C6.65809375,0.109375 6.34790625,0.30821875 6.20484375,0.61840625 L4.619125,4.0621875 C4.6003125,4.09828125 4.5605,4.12453125 4.51434375,4.1313125 L0.854875,4.6781875 C0.52828125,4.72696875 0.2568125,4.9555625 0.15334375,5.26925 C0.04965625,5.5829375 0.13146875,5.928125 0.364875,6.16196875 L3.0463125,8.848 C3.06884375,8.87053125 3.08,8.89809375 3.0786875,8.92565625 L2.20565625,12.8242187 C2.12909375,13.1659062 2.263625,13.5200625 2.5475625,13.7248125 C2.6998125,13.8348437 2.879625,13.8904062 3.05965625,13.8904062 C3.2151875,13.8904062 3.3709375,13.8490625 3.5100625,13.7657187 L6.9339375,11.7105625 C6.95471875,11.7011562 6.97725,11.6963437 6.99978125,11.6963437 C7.02428125,11.6963437 7.04921875,11.7020312 7.07109375,11.7129687 L10.6981875,13.776 C10.8329375,13.8527812 10.982125,13.8904062 11.1306563,13.8904062 C11.3209688,13.8904062 11.5101875,13.8285 11.66725,13.7066562 C11.946375,13.4900937 12.068,13.1265312 11.9750313,12.7852812 L10.9210938,8.9166875 C10.9224063,8.89196875 10.9337813,8.8676875 10.9530313,8.84821875 L13.6349063,6.16175 Z M10.059,9.08228125 L11.130875,13.015625 L7.49109375,10.945375 C7.33796875,10.8629062 7.168875,10.8215625 6.99978125,10.8215625 C6.831125,10.8215625 6.66203125,10.8629062 6.50890625,10.945375 L3.05965625,13.015625 L3.9405625,9.08228125 C3.99284375,8.77165625 3.8906875,8.455125 3.66559375,8.23003125 L0.984375,5.54378125 L4.643625,4.99690625 C4.97765625,4.94703125 5.26575,4.73703125 5.40946875,4.438 L6.99978125,0.984375 L8.59053125,4.438 C8.73425,4.73703125 9.02190625,4.94703125 9.356375,4.99690625 L13.015625,5.54378125 L10.3344063,8.2298125 C10.1093125,8.45490625 10.0071563,8.77165625 10.059,9.08228125 Z" id="Shape" opacity="0.52660779"></path>
                <path d="M6.73903125,3.71240625 C6.63271875,3.65465625 6.4999375,3.693375 6.4421875,3.7996875 L5.59803125,5.34625 C5.522125,5.50396875 5.37075,5.614 5.19290625,5.64046875 L3.717,5.86096875 C3.59734375,5.87890625 3.51509375,5.99025 3.5328125,6.1096875 C3.549,6.2181875 3.64240625,6.2960625 3.7489375,6.2960625 C3.75965625,6.2960625 3.77059375,6.29540625 3.7813125,6.29365625 L5.25721875,6.07315625 C5.5785625,6.02503125 5.85309375,5.82421875 5.98696875,5.54575 L6.82609375,4.00903125 C6.8840625,3.90315625 6.84490625,3.770375 6.73903125,3.71240625 Z" id="Shape"></path>
                <path d="M7.06934375,2.673125 C6.958875,2.6219375 6.829375,2.67071875 6.77928125,2.7803125 L6.6206875,3.124625 C6.57015625,3.23421875 6.6180625,3.36415625 6.727875,3.4146875 C6.757625,3.42846875 6.78846875,3.4348125 6.81909375,3.4348125 C6.902,3.4348125 6.9811875,3.3875625 7.0179375,3.3075 L7.17653125,2.9631875 C7.22728125,2.853375 7.17915625,2.72365625 7.06934375,2.673125 Z" id="Shape"></path>
            </g>
            <g id="star" opacity="0.29761096" transform="translate(29.000000, 0.000000)" fill="#80C2BD">
                <path d="M5.84353125,2.64075 C5.94346875,2.540625 5.97853125,2.3926875 5.9341875,2.25825 C5.88984375,2.1238125 5.7735,2.02584375 5.63353125,2.0049375 L4.06528125,1.7705625 C4.04540625,1.7675625 4.02834375,1.7563125 4.020375,1.74084375 L3.3405,0.26503125 C3.27928125,0.132 3.14634375,0.046875 2.99990625,0.046875 C2.85346875,0.046875 2.72053125,0.13209375 2.65921875,0.26503125 L1.979625,1.7409375 C1.9715625,1.75640625 1.9545,1.76765625 1.93471875,1.7705625 L0.366375,2.0049375 C0.22640625,2.02584375 0.1100625,2.1238125 0.06571875,2.25825 C0.02128125,2.3926875 0.05634375,2.540625 0.156375,2.64084375 L1.3055625,3.792 C1.31521875,3.80165625 1.32,3.81346875 1.3194375,3.82528125 L0.94528125,5.49609375 C0.91246875,5.64253125 0.970125,5.7943125 1.0918125,5.8820625 C1.1570625,5.92921875 1.234125,5.95303125 1.31128125,5.95303125 C1.3779375,5.95303125 1.4446875,5.9353125 1.5043125,5.89959375 L2.9716875,5.0188125 C2.98059375,5.01478125 2.99025,5.01271875 2.99990625,5.01271875 C3.01040625,5.01271875 3.02109375,5.01515625 3.03046875,5.01984375 L4.5849375,5.904 C4.6426875,5.93690625 4.706625,5.95303125 4.77028125,5.95303125 C4.85184375,5.95303125 4.9329375,5.9265 5.00025,5.87428125 C5.119875,5.78146875 5.172,5.62565625 5.13215625,5.47940625 L4.68046875,3.8214375 C4.68103125,3.81084375 4.68590625,3.8004375 4.69415625,3.79209375 L5.84353125,2.64075 Z M4.311,3.89240625 L4.770375,5.578125 L3.21046875,4.690875 C3.14484375,4.65553125 3.072375,4.6378125 2.99990625,4.6378125 C2.927625,4.6378125 2.85515625,4.65553125 2.78953125,4.690875 L1.31128125,5.578125 L1.6888125,3.89240625 C1.71121875,3.75928125 1.6674375,3.623625 1.57096875,3.52715625 L0.421875,2.37590625 L1.990125,2.14153125 C2.13328125,2.12015625 2.25675,2.03015625 2.31834375,1.902 L2.99990625,0.421875 L3.68165625,1.902 C3.74325,2.03015625 3.86653125,2.12015625 4.009875,2.14153125 L5.578125,2.37590625 L4.42903125,3.5270625 C4.3325625,3.62353125 4.28878125,3.75928125 4.311,3.89240625 Z" id="Shape" opacity="0.52660779"></path>
                <path d="M2.88815625,1.59103125 C2.84259375,1.56628125 2.7856875,1.582875 2.7609375,1.6284375 L2.39915625,2.29125 C2.366625,2.35884375 2.30175,2.406 2.22553125,2.41734375 L1.593,2.51184375 C1.54171875,2.51953125 1.50646875,2.56725 1.5140625,2.6184375 C1.521,2.6649375 1.56103125,2.6983125 1.6066875,2.6983125 C1.61128125,2.6983125 1.61596875,2.69803125 1.6205625,2.69728125 L2.25309375,2.60278125 C2.3908125,2.58215625 2.50846875,2.49609375 2.56584375,2.37675 L2.92546875,1.71815625 C2.9503125,1.67278125 2.93353125,1.615875 2.88815625,1.59103125 Z" id="Shape"></path>
                <path d="M3.06320285,1.14707996 C3.00796847,1.12148621 2.94321847,1.14587684 2.9181716,1.20067371 L2.83887472,1.37282996 C2.8136091,1.42762684 2.83756222,1.49259559 2.89246847,1.51786121 C2.90734347,1.52475184 2.92276535,1.52792371 2.93807785,1.52792371 C2.97953097,1.52792371 3.01912472,1.50429871 3.03749972,1.46426746 L3.1167966,1.29211121 C3.1421716,1.23720496 3.1181091,1.17234559 3.06320285,1.14707996 Z" id="Shape"></path>
            </g>
            <g id="star" opacity="0.352921196" transform="translate(35.000000, 41.000000)" fill="#80C2BD">
                <path d="M5.84353125,55.64075 C5.94346875,55.540625 5.97853125,55.3926875 5.9341875,55.25825 C5.88984375,55.1238125 5.7735,55.0258437 5.63353125,55.0049375 L4.06528125,54.7705625 C4.04540625,54.7675625 4.02834375,54.7563125 4.020375,54.7408437 L3.3405,53.2650312 C3.27928125,53.132 3.14634375,53.046875 2.99990625,53.046875 C2.85346875,53.046875 2.72053125,53.1320938 2.65921875,53.2650312 L1.979625,54.7409375 C1.9715625,54.7564062 1.9545,54.7676563 1.93471875,54.7705625 L0.366375,55.0049375 C0.22640625,55.0258437 0.1100625,55.1238125 0.06571875,55.25825 C0.02128125,55.3926875 0.05634375,55.540625 0.156375,55.6408438 L1.3055625,56.792 C1.31521875,56.8016563 1.32,56.8134687 1.3194375,56.8252812 L0.94528125,58.4960938 C0.91246875,58.6425312 0.970125,58.7943125 1.0918125,58.8820625 C1.1570625,58.9292187 1.234125,58.9530312 1.31128125,58.9530312 C1.3779375,58.9530312 1.4446875,58.9353125 1.5043125,58.8995938 L2.9716875,58.0188125 C2.98059375,58.0147812 2.99025,58.0127187 2.99990625,58.0127187 C3.01040625,58.0127187 3.02109375,58.0151562 3.03046875,58.0198437 L4.5849375,58.904 C4.6426875,58.9369062 4.706625,58.9530313 4.77028125,58.9530313 C4.85184375,58.9530313 4.9329375,58.9265 5.00025,58.8742812 C5.119875,58.7814688 5.172,58.6256562 5.13215625,58.4794062 L4.68046875,56.8214375 C4.68103125,56.8108438 4.68590625,56.8004375 4.69415625,56.7920937 L5.84353125,55.64075 Z M4.311,56.8924063 L4.770375,58.578125 L3.21046875,57.690875 C3.14484375,57.6555313 3.072375,57.6378125 2.99990625,57.6378125 C2.927625,57.6378125 2.85515625,57.6555313 2.78953125,57.690875 L1.31128125,58.578125 L1.6888125,56.8924063 C1.71121875,56.7592813 1.6674375,56.623625 1.57096875,56.5271562 L0.421875,55.3759062 L1.990125,55.1415312 C2.13328125,55.1201563 2.25675,55.0301562 2.31834375,54.902 L2.99990625,53.421875 L3.68165625,54.902 C3.74325,55.0301562 3.86653125,55.1201563 4.009875,55.1415312 L5.578125,55.3759062 L4.42903125,56.5270625 C4.3325625,56.6235312 4.28878125,56.7592813 4.311,56.8924063 Z" id="Shape"></path>
                <path d="M5.84353125,55.64075 C5.94346875,55.540625 5.97853125,55.3926875 5.9341875,55.25825 C5.88984375,55.1238125 5.7735,55.0258437 5.63353125,55.0049375 L4.06528125,54.7705625 C4.04540625,54.7675625 4.02834375,54.7563125 4.020375,54.7408437 L3.3405,53.2650312 C3.27928125,53.132 3.14634375,53.046875 2.99990625,53.046875 C2.85346875,53.046875 2.72053125,53.1320938 2.65921875,53.2650312 L1.979625,54.7409375 C1.9715625,54.7564062 1.9545,54.7676563 1.93471875,54.7705625 L0.366375,55.0049375 C0.22640625,55.0258437 0.1100625,55.1238125 0.06571875,55.25825 C0.02128125,55.3926875 0.05634375,55.540625 0.156375,55.6408438 L1.3055625,56.792 C1.31521875,56.8016563 1.32,56.8134687 1.3194375,56.8252812 L0.94528125,58.4960938 C0.91246875,58.6425312 0.970125,58.7943125 1.0918125,58.8820625 C1.1570625,58.9292187 1.234125,58.9530313 1.31128125,58.9530313 C1.3779375,58.9530313 1.4446875,58.9353125 1.5043125,58.8995938 L2.9716875,58.0188125 C2.98059375,58.0147812 2.99025,58.0127188 2.99990625,58.0127188 C3.01040625,58.0127188 3.02109375,58.0151563 3.03046875,58.0198437 L4.5849375,58.904 C4.6426875,58.9369062 4.706625,58.9530313 4.77028125,58.9530313 C4.85184375,58.9530313 4.9329375,58.9265 5.00025,58.8742813 C5.119875,58.7814688 5.172,58.6256562 5.13215625,58.4794062 L4.68046875,56.8214375 C4.68103125,56.8108438 4.68590625,56.8004375 4.69415625,56.7920937 L5.84353125,55.64075 Z M4.311,56.8924063 L4.770375,58.578125 L3.21046875,57.690875 C3.14484375,57.6555313 3.072375,57.6378125 2.99990625,57.6378125 C2.927625,57.6378125 2.85515625,57.6555313 2.78953125,57.690875 L1.31128125,58.578125 L1.6888125,56.8924063 C1.71121875,56.7592813 1.6674375,56.623625 1.57096875,56.5271562 L0.421875,55.3759062 L1.990125,55.1415312 C2.13328125,55.1201563 2.25675,55.0301562 2.31834375,54.902 L2.99990625,53.421875 L3.68165625,54.902 C3.74325,55.0301562 3.86653125,55.1201563 4.009875,55.1415312 L5.578125,55.3759062 L4.42903125,56.5270625 C4.3325625,56.6235312 4.28878125,56.7592813 4.311,56.8924063 Z" id="Shape"></path>
                <path d="M56.7967717,2.593875 C56.8967092,2.49375 56.9317717,2.3458125 56.8874279,2.211375 C56.8430842,2.0769375 56.7267404,1.97896875 56.5867717,1.9580625 L55.0185217,1.7236875 C54.9986467,1.7206875 54.9815842,1.7094375 54.9736154,1.69396875 L54.2937404,0.21815625 C54.2325217,0.085125 54.0995842,0 53.9531467,0 C53.8067092,0 53.6737717,0.08521875 53.6124592,0.21815625 L52.9328654,1.6940625 C52.9248029,1.70953125 52.9077404,1.72078125 52.8879592,1.7236875 L51.3196154,1.9580625 C51.1796467,1.97896875 51.0633029,2.0769375 51.0189592,2.211375 C50.9745217,2.3458125 51.0095842,2.49375 51.1096154,2.59396875 L52.2588029,3.745125 C52.2684592,3.75478125 52.2732404,3.76659375 52.2726779,3.77840625 L51.8985217,5.44921875 C51.8657092,5.59565625 51.9233654,5.7474375 52.0450529,5.8351875 C52.1103029,5.88234375 52.1873654,5.90615625 52.2645217,5.90615625 C52.3311779,5.90615625 52.3979279,5.8884375 52.4575529,5.85271875 L53.9249279,4.9719375 C53.9338342,4.96790625 53.9434904,4.96584375 53.9531467,4.96584375 C53.9636467,4.96584375 53.9743342,4.96828125 53.9837092,4.97296875 L55.5381779,5.857125 C55.5959279,5.89003125 55.6598654,5.90615625 55.7235217,5.90615625 C55.8050842,5.90615625 55.8861779,5.879625 55.9534904,5.82740625 C56.0731154,5.73459375 56.1252404,5.57878125 56.0853967,5.43253125 L55.6337092,3.7745625 C55.6342717,3.76396875 55.6391467,3.7535625 55.6473967,3.74521875 L56.7967717,2.593875 Z M55.2642404,3.84553125 L55.7236154,5.53125 L54.1637092,4.644 C54.0980842,4.60865625 54.0256154,4.5909375 53.9531467,4.5909375 C53.8808654,4.5909375 53.8083967,4.60865625 53.7427717,4.644 L52.2645217,5.53125 L52.6420529,3.84553125 C52.6644592,3.71240625 52.6206779,3.57675 52.5242092,3.48028125 L51.3751154,2.32903125 L52.9433654,2.09465625 C53.0865217,2.07328125 53.2099904,1.98328125 53.2715842,1.855125 L53.9531467,0.375 L54.6348967,1.855125 C54.6964904,1.98328125 54.8197717,2.07328125 54.9631154,2.09465625 L56.5313654,2.32903125 L55.3822717,3.4801875 C55.2858029,3.57665625 55.2420217,3.71240625 55.2642404,3.84553125 Z" id="Shape" opacity="0.100543478"></path>
                <path d="M56.7967717,2.593875 C56.8967092,2.49375 56.9317717,2.3458125 56.8874279,2.211375 C56.8430842,2.0769375 56.7267404,1.97896875 56.5867717,1.9580625 L55.0185217,1.7236875 C54.9986467,1.7206875 54.9815842,1.7094375 54.9736154,1.69396875 L54.2937404,0.21815625 C54.2325217,0.085125 54.0995842,0 53.9531467,0 C53.8067092,0 53.6737717,0.08521875 53.6124592,0.21815625 L52.9328654,1.6940625 C52.9248029,1.70953125 52.9077404,1.72078125 52.8879592,1.7236875 L51.3196154,1.9580625 C51.1796467,1.97896875 51.0633029,2.0769375 51.0189592,2.211375 C50.9745217,2.3458125 51.0095842,2.49375 51.1096154,2.59396875 L52.2588029,3.745125 C52.2684592,3.75478125 52.2732404,3.76659375 52.2726779,3.77840625 L51.8985217,5.44921875 C51.8657092,5.59565625 51.9233654,5.7474375 52.0450529,5.8351875 C52.1103029,5.88234375 52.1873654,5.90615625 52.2645217,5.90615625 C52.3311779,5.90615625 52.3979279,5.8884375 52.4575529,5.85271875 L53.9249279,4.9719375 C53.9338342,4.96790625 53.9434904,4.96584375 53.9531467,4.96584375 C53.9636467,4.96584375 53.9743342,4.96828125 53.9837092,4.97296875 L55.5381779,5.857125 C55.5959279,5.89003125 55.6598654,5.90615625 55.7235217,5.90615625 C55.8050842,5.90615625 55.8861779,5.879625 55.9534904,5.82740625 C56.0731154,5.73459375 56.1252404,5.57878125 56.0853967,5.43253125 L55.6337092,3.7745625 C55.6342717,3.76396875 55.6391467,3.7535625 55.6473967,3.74521875 L56.7967717,2.593875 Z M55.2642404,3.84553125 L55.7236154,5.53125 L54.1637092,4.644 C54.0980842,4.60865625 54.0256154,4.5909375 53.9531467,4.5909375 C53.8808654,4.5909375 53.8083967,4.60865625 53.7427717,4.644 L52.2645217,5.53125 L52.6420529,3.84553125 C52.6644592,3.71240625 52.6206779,3.57675 52.5242092,3.48028125 L51.3751154,2.32903125 L52.9433654,2.09465625 C53.0865217,2.07328125 53.2099904,1.98328125 53.2715842,1.855125 L53.9531467,0.375 L54.6348967,1.855125 C54.6964904,1.98328125 54.8197717,2.07328125 54.9631154,2.09465625 L56.5313654,2.32903125 L55.3822717,3.4801875 C55.2858029,3.57665625 55.2420217,3.71240625 55.2642404,3.84553125 Z" id="Shape" opacity="0.100543478"></path>
                <path d="M2.88815625,54.5910313 C2.84259375,54.5662812 2.7856875,54.582875 2.7609375,54.6284375 L2.39915625,55.29125 C2.366625,55.3588437 2.30175,55.406 2.22553125,55.4173437 L1.593,55.5118437 C1.54171875,55.5195312 1.50646875,55.56725 1.5140625,55.6184375 C1.521,55.6649375 1.56103125,55.6983125 1.6066875,55.6983125 C1.61128125,55.6983125 1.61596875,55.6980312 1.6205625,55.6972812 L2.25309375,55.6027812 C2.3908125,55.5821562 2.50846875,55.4960938 2.56584375,55.37675 L2.92546875,54.7181562 C2.9503125,54.6727812 2.93353125,54.615875 2.88815625,54.5910313 Z" id="Shape"></path>
                <path d="M3.06320285,54.14708 C3.00796847,54.1214862 2.94321847,54.1458768 2.9181716,54.2006737 L2.83887472,54.37283 C2.8136091,54.4276268 2.83756222,54.4925956 2.89246847,54.5178612 C2.90734347,54.5247518 2.92276535,54.5279237 2.93807785,54.5279237 C2.97953097,54.5279237 3.01912472,54.5042987 3.03749972,54.4642675 L3.1167966,54.2921112 C3.1421716,54.237205 3.1181091,54.1723456 3.06320285,54.14708 Z" id="Shape"></path>
            </g>
            <g id="star" opacity="0.451370018" transform="translate(71.000000, 77.000000)" fill="#80C2BD">
                <path d="M11.6870625,5.2815 C11.8869375,5.08125 11.9570625,4.785375 11.868375,4.5165 C11.7796875,4.247625 11.547,4.0516875 11.2670625,4.009875 L8.1305625,3.541125 C8.0908125,3.535125 8.0566875,3.512625 8.04075,3.4816875 L6.681,0.5300625 C6.5585625,0.264 6.2926875,0.09375 5.9998125,0.09375 C5.7069375,0.09375 5.4410625,0.2641875 5.3184375,0.5300625 L3.95925,3.481875 C3.943125,3.5128125 3.909,3.5353125 3.8694375,3.541125 L0.73275,4.009875 C0.4528125,4.0516875 0.220125,4.247625 0.1314375,4.5165 C0.0425625,4.785375 0.1126875,5.08125 0.31275,5.2816875 L2.611125,7.584 C2.6304375,7.6033125 2.64,7.6269375 2.638875,7.6505625 L1.8905625,10.9921875 C1.8249375,11.2850625 1.94025,11.588625 2.183625,11.764125 C2.314125,11.8584375 2.46825,11.9060625 2.6225625,11.9060625 C2.755875,11.9060625 2.889375,11.870625 3.008625,11.7991875 L5.943375,10.037625 C5.9611875,10.0295625 5.9805,10.0254375 5.9998125,10.0254375 C6.0208125,10.0254375 6.0421875,10.0303125 6.0609375,10.0396875 L9.169875,11.808 C9.285375,11.8738125 9.41325,11.9060625 9.5405625,11.9060625 C9.7036875,11.9060625 9.865875,11.853 10.0005,11.7485625 C10.23975,11.5629375 10.344,11.2513125 10.2643125,10.9588125 L9.3609375,7.642875 C9.3620625,7.6216875 9.3718125,7.600875 9.3883125,7.5841875 L11.6870625,5.2815 Z M8.622,7.7848125 L9.54075,11.15625 L6.4209375,9.38175 C6.2896875,9.3110625 6.14475,9.275625 5.9998125,9.275625 C5.85525,9.275625 5.7103125,9.3110625 5.5790625,9.38175 L2.6225625,11.15625 L3.377625,7.7848125 C3.4224375,7.5185625 3.334875,7.24725 3.1419375,7.0543125 L0.84375,4.7518125 L3.98025,4.2830625 C4.2665625,4.2403125 4.5135,4.0603125 4.6366875,3.804 L5.9998125,0.84375 L7.3633125,3.804 C7.4865,4.0603125 7.7330625,4.2403125 8.01975,4.2830625 L11.15625,4.7518125 L8.8580625,7.054125 C8.665125,7.2470625 8.5775625,7.5185625 8.622,7.7848125 Z" id="Shape"></path>
                <path d="M5.7763125,3.1820625 C5.6851875,3.1325625 5.571375,3.16575 5.521875,3.256875 L4.7983125,4.5825 C4.73325,4.7176875 4.6035,4.812 4.4510625,4.8346875 L3.186,5.0236875 C3.0834375,5.0390625 3.0129375,5.1345 3.028125,5.236875 C3.042,5.329875 3.1220625,5.396625 3.213375,5.396625 C3.2225625,5.396625 3.2319375,5.3960625 3.241125,5.3945625 L4.5061875,5.2055625 C4.781625,5.1643125 5.0169375,4.9921875 5.1316875,4.7535 L5.8509375,3.4363125 C5.900625,3.3455625 5.8670625,3.23175 5.7763125,3.1820625 Z" id="Shape"></path>
                <path d="M6.0594375,2.29125 C5.96475,2.247375 5.85375,2.2891875 5.8108125,2.383125 L5.674875,2.67825 C5.6315625,2.7721875 5.672625,2.8835625 5.76675,2.926875 C5.79225,2.9386875 5.8186875,2.944125 5.8449375,2.944125 C5.916,2.944125 5.983875,2.903625 6.015375,2.835 L6.1513125,2.539875 C6.1948125,2.44575 6.1535625,2.3345625 6.0594375,2.29125 Z" id="Shape"></path>
            </g>
            <g id="star" opacity="0.669723732" transform="translate(72.000000, 13.000000)" fill="#80C2BD">
                <path d="M14.6088281,6.601875 C14.8586719,6.3515625 14.9463281,5.98171875 14.8354687,5.645625 C14.7246094,5.30953125 14.43375,5.06460937 14.0838281,5.01234375 L10.1632031,4.42640625 C10.1135156,4.41890625 10.0708594,4.39078125 10.0509375,4.35210937 L8.35125,0.662578125 C8.19820312,0.33 7.86585937,0.1171875 7.49976562,0.1171875 C7.13367187,0.1171875 6.80132812,0.330234375 6.64804687,0.662578125 L4.9490625,4.35234375 C4.92890625,4.39101562 4.88625,4.41914062 4.83679687,4.42640625 L0.9159375,5.01234375 C0.566015625,5.06460937 0.27515625,5.30953125 0.164296875,5.645625 C0.053203125,5.98171875 0.140859375,6.3515625 0.3909375,6.60210937 L3.26390625,9.48 C3.28804687,9.50414062 3.3,9.53367187 3.29859375,9.56320312 L2.36320312,13.7402344 C2.28117187,14.1063281 2.4253125,14.4857812 2.72953125,14.7051562 C2.89265625,14.8230469 3.0853125,14.8825781 3.27820312,14.8825781 C3.44484375,14.8825781 3.61171875,14.8382812 3.76078125,14.7489844 L7.42921875,12.5470313 C7.45148437,12.5369531 7.475625,12.5317969 7.49976562,12.5317969 C7.52601562,12.5317969 7.55273437,12.5378906 7.57617187,12.5496094 L11.4623437,14.76 C11.6067187,14.8422656 11.7665625,14.8825781 11.9257031,14.8825781 C12.1296094,14.8825781 12.3323437,14.81625 12.500625,14.6857031 C12.7996875,14.4536719 12.93,14.0641406 12.8303906,13.6985156 L11.7011719,9.55359375 C11.7025781,9.52710938 11.7147656,9.50109375 11.7353906,9.48023438 L14.6088281,6.601875 Z M10.7775,9.73101562 L11.9259375,13.9453125 L8.02617187,11.7271875 C7.86210937,11.6388281 7.6809375,11.5945312 7.49976562,11.5945312 C7.3190625,11.5945312 7.13789062,11.6388281 6.97382812,11.7271875 L3.27820312,13.9453125 L4.22203125,9.73101562 C4.27804687,9.39820313 4.16859375,9.0590625 3.92742187,8.81789063 L1.0546875,5.93976562 L4.9753125,5.35382813 C5.33320312,5.30039063 5.641875,5.07539062 5.79585937,4.755 L7.49976562,1.0546875 L9.20414062,4.755 C9.358125,5.07539062 9.66632812,5.30039063 10.0246875,5.35382813 L13.9453125,5.93976562 L11.0725781,8.81765625 C10.8314062,9.05882812 10.7219531,9.39820313 10.7775,9.73101562 Z" id="Shape"></path>
                <path d="M24.6586131,44.5320533 C24.7561687,44.4343147 24.7903956,44.2899031 24.7471087,44.1586697 C24.7038218,44.0274364 24.590251,43.9318026 24.4536182,43.9113946 L22.9227454,43.6826056 C22.9033441,43.6796771 22.8866883,43.6686953 22.8789094,43.6535952 L22.2152384,42.2129568 C22.1554787,42.0830962 22.0257096,42 21.8827623,42 C21.7398149,42 21.6100458,42.0831877 21.5501946,42.2129568 L20.8867981,43.6536867 C20.8789277,43.6687868 20.8622719,43.6797686 20.8429621,43.6826056 L19.3119978,43.9113946 C19.1753651,43.9318026 19.0617942,44.0274364 19.0185073,44.1586697 C18.9751289,44.2899031 19.0093558,44.4343147 19.1070029,44.5321448 L20.228801,45.6558648 C20.2382271,45.6652909 20.2428944,45.6768218 20.2423453,45.6883528 L19.8771066,47.3193436 C19.8450761,47.462291 19.9013582,47.6104547 20.0201455,47.6961133 C20.0838403,47.7421457 20.1590661,47.7653906 20.2343835,47.7653906 C20.299451,47.7653906 20.3646101,47.7480942 20.4228141,47.7132267 L21.8552161,46.8534378 C21.86391,46.8495026 21.8733361,46.8474893 21.8827623,46.8474893 C21.893012,46.8474893 21.9034448,46.8498687 21.9125963,46.8544444 L23.4300163,47.717528 C23.4863899,47.7496499 23.5488036,47.7653906 23.6109426,47.7653906 C23.6905612,47.7653906 23.7697222,47.7394917 23.8354304,47.6885175 C23.9522043,47.5979171 24.0030869,47.4458182 23.9641928,47.3030539 L23.5232707,45.6846007 C23.5238198,45.6742594 23.5285786,45.6641012 23.536632,45.6559563 L24.6586131,44.5320533 Z M23.1626078,45.753878 L23.6110342,47.3994198 L22.0883063,46.5333162 C22.0242454,46.4988149 21.9535038,46.4815184 21.8827623,46.4815184 C21.8122037,46.4815184 21.7414622,46.4988149 21.6774013,46.5333162 L20.2343835,47.3994198 L20.6029167,45.753878 C20.624789,45.6239258 20.5820512,45.4915028 20.4878816,45.3973332 L19.3661751,44.2735218 L20.8970478,44.0447328 C21.0367921,44.0238673 21.1573182,43.9360123 21.2174439,43.8109105 L21.8827623,42.3660624 L22.5482636,43.8109105 C22.6083894,43.9360123 22.7287324,44.0238673 22.8686597,44.0447328 L24.3995325,44.2735218 L23.2778259,45.3972417 C23.1836564,45.4914113 23.1409186,45.6239258 23.1626078,45.753878 Z" id="Shape" opacity="0.436424366"></path>
                <path d="M7.22039063,3.97757812 C7.10648438,3.91570313 6.96421875,3.9571875 6.90234375,4.07109375 L5.99789063,5.728125 C5.9165625,5.89710938 5.754375,6.015 5.56382813,6.04335937 L3.9825,6.27960937 C3.85429688,6.29882812 3.76617188,6.418125 3.78515625,6.54609375 C3.8025,6.66234375 3.90257813,6.74578125 4.01671875,6.74578125 C4.02820313,6.74578125 4.03992188,6.74507813 4.05140625,6.74320313 L5.63273438,6.50695313 C5.97703125,6.45539063 6.27117188,6.24023438 6.41460938,5.941875 L7.31367188,4.29539062 C7.37578125,4.18195312 7.33382813,4.0396875 7.22039063,3.97757812 Z" id="Shape"></path>
                <path d="M7.57429687,2.8640625 C7.4559375,2.80921875 7.3171875,2.86148438 7.26351562,2.97890625 L7.09359375,3.3478125 C7.03945312,3.46523438 7.09078125,3.60445313 7.2084375,3.65859375 C7.2403125,3.67335938 7.27335937,3.68015625 7.30617187,3.68015625 C7.395,3.68015625 7.47984375,3.62953125 7.51921875,3.54375 L7.68914062,3.17484375 C7.74351562,3.0571875 7.69195312,2.91820313 7.57429687,2.8640625 Z" id="Shape"></path>
            </g>
            <g id="like" opacity="0.489809783" transform="translate(0.000000, 46.000000)" fill="#F39C12">
                <path d="M15.558625,4.6475614 L13.4742656,4.6475614 L13.8806875,1.64482456 C13.8922656,1.57891228 13.8982031,1.47333333 13.8982031,1.4044386 C13.8982031,0.745614035 13.3670937,0.173877193 12.7112969,0.173877193 L12.7098125,0.173877193 L12.694375,0.173877193 C12.5598906,0.173877193 11.8465,0.275280702 10.8552344,0.608719298 C10.15075,0.845526316 9.1473125,1.98721053 7.76892187,3.92759649 C6.93203125,5.10596491 6.36321875,6.04245614 6.03992187,6.82236842 C5.70148437,6.58794737 5.30871875,6.43673684 4.94385937,6.43673684 L2.45129687,6.43673684 C1.22134375,6.43673684 0.173078125,7.59392982 0.173078125,8.83224561 L0.173078125,14.1830702 C0.173078125,15.4210877 1.22134375,16.2785439 2.45129687,16.2785439 L4.94385937,16.2785439 C5.4565625,16.2785439 6.02567187,16.0915439 6.41814063,15.6200175 C7.00595312,16.3862105 7.9170625,16.8750351 8.97660937,16.8750351 L14.9675469,16.8750351 C16.7992656,16.8750351 18.2940313,15.467614 18.3317344,13.6310175 L18.916875,8.27959649 C18.921625,8.23664912 18.9237031,8.13733333 18.9237031,8.09408772 C18.924,6.22498246 17.4140937,4.6475614 15.558625,4.6475614 Z M3.14182812,15.0861579 L3.14182812,13.5958246 C3.14182812,13.3533509 3.41376562,13.1484561 3.73557812,13.1484561 C4.05739062,13.1484561 4.32932812,13.3536491 4.32932812,13.5958246 L4.32932812,15.0861579 L3.14182812,15.0861579 Z M5.81370312,14.1836667 C5.81370312,14.7649474 5.52009375,15.0861579 4.94385937,15.0861579 L4.92307812,15.0861579 L4.92307812,13.5958246 C4.92307812,13.0202105 4.39048437,12.5519649 3.73557812,12.5519649 C3.08067187,12.5519649 2.54807812,13.0202105 2.54807812,13.5958246 L2.54807812,15.2105263 C1.95432812,15.2102281 1.36057812,14.7649474 1.36057812,14.1836667 L1.36057812,8.83254386 C1.36057812,8.25126316 1.8750625,7.63001754 2.45129687,7.63001754 L4.826,7.63001754 L4.94385937,7.63001754 C5.51979687,7.63001754 5.81370312,8.25126316 5.81370312,8.83254386 L5.81370312,13.635193 L5.81370312,14.1836667 L5.81370312,14.1836667 Z M17.1454219,13.5534737 C17.1454219,14.7673333 16.1704844,15.6826491 14.9678437,15.6826491 L8.97690625,15.6826491 C7.77426562,15.6826491 7.00120312,14.8487544 7.00120312,13.635193 L7.00120312,8.83254386 L7.00120312,8.18833333 C7.00120312,6.97447368 10.4464375,2.10680702 11.3332031,1.8085614 C12.2196719,1.51031579 12.7341562,1.4417193 12.7341562,1.4417193 L12.1184375,5.84054386 L15.558625,5.84054386 C16.7615625,5.84054386 17.7365,6.86829825 17.7365,8.08245614 L17.1454219,13.5534737 Z" id="Shape"></path>
                <path d="M15.9059688,11.6452982 C15.7429844,11.6339649 15.5995938,11.7550526 15.5865313,11.919386 L15.477875,13.2549298 C15.477875,13.9823509 14.9429063,14.4899649 14.2600938,14.4899649 L9.576,14.4899649 C9.412125,14.4899649 9.279125,14.6232807 9.279125,14.7882105 C9.279125,14.9531404 9.412125,15.0864561 9.576,15.0864561 L14.2600938,15.0864561 C15.2587813,15.0864561 16.071625,14.2987895 16.0707344,13.278193 L16.1785,11.9348947 C16.1915625,11.7708596 16.0695469,11.6584211 15.9059688,11.6452982 Z" id="Shape"></path>
                <path d="M16.1859219,9.84329825 C16.0232344,9.82510526 15.876875,9.94440351 15.8593594,10.1081404 L15.7904844,10.7571228 C15.7726719,10.9211579 15.8908281,11.0678947 16.0538125,11.0854912 C16.0647969,11.0866842 16.0751875,11.0872807 16.085875,11.0872807 C16.2357969,11.0872807 16.3643438,10.9736491 16.3806719,10.8206491 L16.4495469,10.1716667 C16.4673594,10.0076316 16.3489063,9.86089474 16.1859219,9.84329825 Z" id="Shape"></path>
                <path d="M3.73557812,13.7192982 C3.57170312,13.7192982 3.43870312,13.852614 3.43870312,14.0175439 L3.43870312,14.6140351 C3.43870312,14.7789649 3.57170312,14.9122807 3.73557812,14.9122807 C3.89945312,14.9122807 4.03245312,14.7789649 4.03245312,14.6140351 L4.03245312,14.0175439 C4.03245312,13.852614 3.89945312,13.7192982 3.73557812,13.7192982 Z" id="Shape"></path>
            </g>
            <g id="like" opacity="0.285835598" transform="translate(69.000000, 44.000000)" fill="#F39C12">
                <path d="M10.645375,3.28063158 L9.21923437,3.28063158 L9.4973125,1.16105263 C9.50523437,1.11452632 9.50929687,1.04 9.50929687,0.991368421 C9.50929687,0.526315789 9.14590625,0.122736842 8.69720312,0.122736842 L8.6961875,0.122736842 L8.685625,0.122736842 C8.59360937,0.122736842 8.1055,0.194315789 7.42726562,0.429684211 C6.94525,0.596842105 6.2586875,1.40273684 5.31557812,2.77242105 C4.74296875,3.60421053 4.35378125,4.26526316 4.13257812,4.81578947 C3.90101562,4.65031579 3.63228125,4.54357895 3.38264062,4.54357895 L1.67720312,4.54357895 C0.83565625,4.54357895 0.118421875,5.36042105 0.118421875,6.23452632 L0.118421875,10.0115789 C0.118421875,10.8854737 0.83565625,11.4907368 1.67720312,11.4907368 L3.38264062,11.4907368 C3.7334375,11.4907368 4.12282812,11.3587368 4.39135937,11.0258947 C4.79354687,11.5667368 5.4169375,11.9117895 6.14189062,11.9117895 L10.2409531,11.9117895 C11.4942344,11.9117895 12.5169687,10.9183158 12.5427656,9.62189474 L12.943125,5.84442105 C12.946375,5.81410526 12.9477969,5.744 12.9477969,5.71347368 C12.948,4.39410526 11.9149062,3.28063158 10.645375,3.28063158 Z M2.14967187,10.6490526 L2.14967187,9.59705263 C2.14967187,9.42589474 2.33573437,9.28126316 2.55592187,9.28126316 C2.77610937,9.28126316 2.96217187,9.42610526 2.96217187,9.59705263 L2.96217187,10.6490526 L2.14967187,10.6490526 Z M3.97779687,10.012 C3.97779687,10.4223158 3.77690625,10.6490526 3.38264062,10.6490526 L3.36842187,10.6490526 L3.36842187,9.59705263 C3.36842187,9.19073684 3.00401562,8.86021053 2.55592187,8.86021053 C2.10782812,8.86021053 1.74342187,9.19073684 1.74342187,9.59705263 L1.74342187,10.7368421 C1.33717187,10.7366316 0.930921875,10.4223158 0.930921875,10.012 L0.930921875,6.23473684 C0.930921875,5.82442105 1.2829375,5.38589474 1.67720312,5.38589474 L3.302,5.38589474 L3.38264062,5.38589474 C3.77670312,5.38589474 3.97779687,5.82442105 3.97779687,6.23473684 L3.97779687,9.62484211 L3.97779687,10.012 L3.97779687,10.012 Z M11.7310781,9.56715789 C11.7310781,10.424 11.0640156,11.0701053 10.2411562,11.0701053 L6.14209375,11.0701053 C5.31923437,11.0701053 4.79029687,10.4814737 4.79029687,9.62484211 L4.79029687,6.23473684 L4.79029687,5.78 C4.79029687,4.92315789 7.1475625,1.48715789 7.75429687,1.27663158 C8.36082812,1.06610526 8.71284375,1.01768421 8.71284375,1.01768421 L8.2915625,4.12273684 L10.645375,4.12273684 C11.4684375,4.12273684 12.1355,4.84821053 12.1355,5.70526316 L11.7310781,9.56715789 Z" id="Shape"></path>
                <path d="M10.8830313,8.22021053 C10.7715156,8.21221053 10.6734063,8.29768421 10.6644688,8.41368421 L10.590125,9.35642105 C10.590125,9.86989474 10.2240938,10.2282105 9.75690625,10.2282105 L6.552,10.2282105 C6.439875,10.2282105 6.348875,10.3223158 6.348875,10.4387368 C6.348875,10.5551579 6.439875,10.6492632 6.552,10.6492632 L9.75690625,10.6492632 C10.4402188,10.6492632 10.996375,10.0932632 10.9957656,9.37284211 L11.0695,8.42463158 C11.0784375,8.30884211 10.9949531,8.22947368 10.8830313,8.22021053 Z" id="Shape"></path>
                <path d="M11.0745781,6.94821053 C10.9632656,6.93536842 10.863125,7.01957895 10.8511406,7.13515789 L10.8040156,7.59326316 C10.7918281,7.70905263 10.8726719,7.81263158 10.9841875,7.82505263 C10.9917031,7.82589474 10.9988125,7.82631579 11.006125,7.82631579 C11.1087031,7.82631579 11.1966562,7.74610526 11.2078281,7.63810526 L11.2549531,7.18 C11.2671406,7.06421053 11.1860937,6.96063158 11.0745781,6.94821053 Z" id="Shape"></path>
                <path d="M2.55592187,9.68421053 C2.44379687,9.68421053 2.35279687,9.77831579 2.35279687,9.89473684 L2.35279687,10.3157895 C2.35279687,10.4322105 2.44379687,10.5263158 2.55592187,10.5263158 C2.66804687,10.5263158 2.75904687,10.4322105 2.75904687,10.3157895 L2.75904687,9.89473684 C2.75904687,9.77831579 2.66804687,9.68421053 2.55592187,9.68421053 Z" id="Shape"></path>
            </g>
            <g id="like" opacity="0.285835598" transform="translate(44.000000, 6.000000)" fill="#F39C12">
                <path d="M9.007625,2.73385965 L7.80089062,2.73385965 L8.0361875,0.96754386 C8.04289062,0.92877193 8.04632812,0.866666667 8.04632812,0.826140351 C8.04632812,0.438596491 7.73884375,0.102280702 7.35917187,0.102280702 L7.3583125,0.102280702 L7.349375,0.102280702 C7.27151562,0.102280702 6.8585,0.161929825 6.28460937,0.358070175 C5.87675,0.497368421 5.2958125,1.16894737 4.49779687,2.31035088 C4.01328125,3.00350877 3.68396875,3.55438596 3.49679687,4.01315789 C3.30085937,3.87526316 3.07346875,3.78631579 2.86223437,3.78631579 L1.41917187,3.78631579 C0.70709375,3.78631579 0.100203125,4.46701754 0.100203125,5.1954386 L0.100203125,8.34298246 C0.100203125,9.07122807 0.70709375,9.57561404 1.41917187,9.57561404 L2.86223437,9.57561404 C3.1590625,9.57561404 3.48854687,9.46561404 3.71576562,9.18824561 C4.05607812,9.63894737 4.5835625,9.92649123 5.19698437,9.92649123 L8.66542187,9.92649123 C9.72589062,9.92649123 10.5912812,9.09859649 10.6131094,8.01824561 L10.951875,4.87035088 C10.954625,4.84508772 10.9558281,4.78666667 10.9558281,4.76122807 C10.956,3.66175439 10.0818437,2.73385965 9.007625,2.73385965 Z M1.81895312,8.87421053 L1.81895312,7.99754386 C1.81895312,7.85491228 1.97639062,7.73438596 2.16270312,7.73438596 C2.34901562,7.73438596 2.50645312,7.85508772 2.50645312,7.99754386 L2.50645312,8.87421053 L1.81895312,8.87421053 Z M3.36582812,8.34333333 C3.36582812,8.68526316 3.19584375,8.87421053 2.86223437,8.87421053 L2.85020312,8.87421053 L2.85020312,7.99754386 C2.85020312,7.65894737 2.54185937,7.38350877 2.16270312,7.38350877 C1.78354687,7.38350877 1.47520312,7.65894737 1.47520312,7.99754386 L1.47520312,8.94736842 C1.13145312,8.94719298 0.787703125,8.68526316 0.787703125,8.34333333 L0.787703125,5.19561404 C0.787703125,4.85368421 1.0855625,4.48824561 1.41917187,4.48824561 L2.794,4.48824561 L2.86223437,4.48824561 C3.19567187,4.48824561 3.36582812,4.85368421 3.36582812,5.19561404 L3.36582812,8.02070175 L3.36582812,8.34333333 L3.36582812,8.34333333 Z M9.92629687,7.97263158 C9.92629687,8.68666667 9.36185937,9.22508772 8.66559375,9.22508772 L5.19715625,9.22508772 C4.50089062,9.22508772 4.05332812,8.7345614 4.05332812,8.02070175 L4.05332812,5.19561404 L4.05332812,4.81666667 C4.05332812,4.10263158 6.0479375,1.23929825 6.56132812,1.06385965 C7.07454687,0.888421053 7.37240625,0.848070175 7.37240625,0.848070175 L7.0159375,3.43561404 L9.007625,3.43561404 C9.7040625,3.43561404 10.2685,4.04017544 10.2685,4.75438596 L9.92629687,7.97263158 Z" id="Shape"></path>
                <path d="M9.20871875,6.85017544 C9.11435938,6.84350877 9.03134375,6.91473684 9.02378125,7.01140351 L8.960875,7.79701754 C8.960875,8.22491228 8.65115625,8.52350877 8.25584375,8.52350877 L5.544,8.52350877 C5.449125,8.52350877 5.372125,8.60192982 5.372125,8.69894737 C5.372125,8.79596491 5.449125,8.87438596 5.544,8.87438596 L8.25584375,8.87438596 C8.83403125,8.87438596 9.304625,8.41105263 9.30410938,7.81070175 L9.3665,7.02052632 C9.3740625,6.92403509 9.30342188,6.85789474 9.20871875,6.85017544 Z" id="Shape"></path>
                <path d="M9.37079687,5.79017544 C9.27660937,5.77947368 9.191875,5.84964912 9.18173437,5.94596491 L9.14185937,6.3277193 C9.13154687,6.42421053 9.19995312,6.51052632 9.2943125,6.52087719 C9.30067187,6.52157895 9.3066875,6.52192982 9.312875,6.52192982 C9.39967187,6.52192982 9.47409375,6.45508772 9.48354687,6.36508772 L9.52342187,5.98333333 C9.53373437,5.88684211 9.46515625,5.80052632 9.37079687,5.79017544 Z" id="Shape"></path>
                <path d="M2.16270312,8.07017544 C2.06782812,8.07017544 1.99082812,8.14859649 1.99082812,8.24561404 L1.99082812,8.59649123 C1.99082812,8.69350877 2.06782812,8.77192982 2.16270312,8.77192982 C2.25757812,8.77192982 2.33457812,8.69350877 2.33457812,8.59649123 L2.33457812,8.24561404 C2.33457812,8.14859649 2.25757812,8.07017544 2.16270312,8.07017544 Z" id="Shape"></path>
            </g>
            <g id="like" opacity="0.167855525" transform="translate(0.000000, 11.000000)" fill="#F39C12">
                <path d="M4.094375,1.36692982 L3.54585937,1.36692982 L3.6528125,0.48377193 C3.65585937,0.464385965 3.65742187,0.433333333 3.65742187,0.413070175 C3.65742187,0.219298246 3.51765625,0.0511403509 3.34507812,0.0511403509 L3.3446875,0.0511403509 L3.340625,0.0511403509 C3.30523437,0.0511403509 3.1175,0.0809649123 2.85664062,0.179035088 C2.67125,0.248684211 2.4071875,0.584473684 2.04445312,1.15517544 C1.82421875,1.50175439 1.67453125,1.77719298 1.58945312,2.00657895 C1.50039062,1.93763158 1.39703125,1.89315789 1.30101562,1.89315789 L0.645078125,1.89315789 C0.32140625,1.89315789 0.045546875,2.23350877 0.045546875,2.5977193 L0.045546875,4.17149123 C0.045546875,4.53561404 0.32140625,4.78780702 0.645078125,4.78780702 L1.30101562,4.78780702 C1.4359375,4.78780702 1.58570312,4.73280702 1.68898437,4.59412281 C1.84367187,4.81947368 2.0834375,4.96324561 2.36226562,4.96324561 L3.93882812,4.96324561 C4.42085937,4.96324561 4.81421875,4.54929825 4.82414062,4.00912281 L4.978125,2.43517544 C4.979375,2.42254386 4.97992187,2.39333333 4.97992187,2.38061404 C4.98,1.83087719 4.58265625,1.36692982 4.094375,1.36692982 Z M0.826796875,4.43710526 L0.826796875,3.99877193 C0.826796875,3.92745614 0.898359375,3.86719298 0.983046875,3.86719298 C1.06773437,3.86719298 1.13929687,3.92754386 1.13929687,3.99877193 L1.13929687,4.43710526 L0.826796875,4.43710526 Z M1.52992187,4.17166667 C1.52992187,4.34263158 1.45265625,4.43710526 1.30101562,4.43710526 L1.29554687,4.43710526 L1.29554687,3.99877193 C1.29554687,3.82947368 1.15539062,3.69175439 0.983046875,3.69175439 C0.810703125,3.69175439 0.670546875,3.82947368 0.670546875,3.99877193 L0.670546875,4.47368421 C0.514296875,4.47359649 0.358046875,4.34263158 0.358046875,4.17166667 L0.358046875,2.59780702 C0.358046875,2.42684211 0.4934375,2.24412281 0.645078125,2.24412281 L1.27,2.24412281 L1.30101562,2.24412281 C1.45257812,2.24412281 1.52992187,2.42684211 1.52992187,2.59780702 L1.52992187,4.01035088 L1.52992187,4.17166667 L1.52992187,4.17166667 Z M4.51195312,3.98631579 C4.51195312,4.34333333 4.25539062,4.61254386 3.93890625,4.61254386 L2.36234375,4.61254386 C2.04585937,4.61254386 1.84242187,4.3672807 1.84242187,4.01035088 L1.84242187,2.59780702 L1.84242187,2.40833333 C1.84242187,2.05131579 2.7490625,0.619649123 2.98242187,0.531929825 C3.21570312,0.444210526 3.35109375,0.424035088 3.35109375,0.424035088 L3.1890625,1.71780702 L4.094375,1.71780702 C4.4109375,1.71780702 4.6675,2.02008772 4.6675,2.37719298 L4.51195312,3.98631579 Z" id="Shape"></path>
                <path d="M4.18578125,3.42508772 C4.14289063,3.42175439 4.10515625,3.45736842 4.10171875,3.50570175 L4.073125,3.89850877 C4.073125,4.11245614 3.93234375,4.26175439 3.75265625,4.26175439 L2.52,4.26175439 C2.476875,4.26175439 2.441875,4.30096491 2.441875,4.34947368 C2.441875,4.39798246 2.476875,4.43719298 2.52,4.43719298 L3.75265625,4.43719298 C4.01546875,4.43719298 4.229375,4.20552632 4.22914063,3.90535088 L4.2575,3.51026316 C4.2609375,3.46201754 4.22882813,3.42894737 4.18578125,3.42508772 Z" id="Shape"></path>
                <path d="M4.26990613,2.89508772 C4.22281238,2.88973684 4.18044519,2.92482456 4.17537488,2.97298246 L4.15543738,3.16385965 C4.15028113,3.21210526 4.18448425,3.25526316 4.23166394,3.2604386 C4.23484363,3.26078947 4.23785144,3.26096491 4.24094519,3.26096491 C4.28434363,3.26096491 4.32155457,3.22754386 4.32628113,3.18254386 L4.34621863,2.99166667 C4.35137488,2.94342105 4.31708582,2.90026316 4.26990613,2.89508772 Z" id="Shape"></path>
                <path d="M0.990859375,4.03508772 C0.943421875,4.03508772 0.904921875,4.07429825 0.904921875,4.12280702 L0.904921875,4.29824561 C0.904921875,4.34675439 0.943421875,4.38596491 0.990859375,4.38596491 C1.03829687,4.38596491 1.07679687,4.34675439 1.07679687,4.29824561 L1.07679687,4.12280702 C1.07679687,4.07429825 1.03829687,4.03508772 0.990859375,4.03508772 Z" id="Shape"></path>
            </g>
            <g id="like" opacity="0.285835598" transform="translate(50.000000, 92.000000)" fill="#F39C12">
                <path d="M9.007625,2.73385965 L7.80089062,2.73385965 L8.0361875,0.96754386 C8.04289062,0.92877193 8.04632812,0.866666667 8.04632812,0.826140351 C8.04632812,0.438596491 7.73884375,0.102280702 7.35917187,0.102280702 L7.3583125,0.102280702 L7.349375,0.102280702 C7.27151562,0.102280702 6.8585,0.161929825 6.28460937,0.358070175 C5.87675,0.497368421 5.2958125,1.16894737 4.49779687,2.31035088 C4.01328125,3.00350877 3.68396875,3.55438596 3.49679687,4.01315789 C3.30085937,3.87526316 3.07346875,3.78631579 2.86223437,3.78631579 L1.41917187,3.78631579 C0.70709375,3.78631579 0.100203125,4.46701754 0.100203125,5.1954386 L0.100203125,8.34298246 C0.100203125,9.07122807 0.70709375,9.57561404 1.41917187,9.57561404 L2.86223437,9.57561404 C3.1590625,9.57561404 3.48854687,9.46561404 3.71576562,9.18824561 C4.05607812,9.63894737 4.5835625,9.92649123 5.19698437,9.92649123 L8.66542187,9.92649123 C9.72589062,9.92649123 10.5912812,9.09859649 10.6131094,8.01824561 L10.951875,4.87035088 C10.954625,4.84508772 10.9558281,4.78666667 10.9558281,4.76122807 C10.956,3.66175439 10.0818437,2.73385965 9.007625,2.73385965 Z M1.81895312,8.87421053 L1.81895312,7.99754386 C1.81895312,7.85491228 1.97639062,7.73438596 2.16270312,7.73438596 C2.34901562,7.73438596 2.50645312,7.85508772 2.50645312,7.99754386 L2.50645312,8.87421053 L1.81895312,8.87421053 Z M3.36582812,8.34333333 C3.36582812,8.68526316 3.19584375,8.87421053 2.86223437,8.87421053 L2.85020312,8.87421053 L2.85020312,7.99754386 C2.85020312,7.65894737 2.54185937,7.38350877 2.16270312,7.38350877 C1.78354687,7.38350877 1.47520312,7.65894737 1.47520312,7.99754386 L1.47520312,8.94736842 C1.13145312,8.94719298 0.787703125,8.68526316 0.787703125,8.34333333 L0.787703125,5.19561404 C0.787703125,4.85368421 1.0855625,4.48824561 1.41917187,4.48824561 L2.794,4.48824561 L2.86223437,4.48824561 C3.19567187,4.48824561 3.36582812,4.85368421 3.36582812,5.19561404 L3.36582812,8.02070175 L3.36582812,8.34333333 L3.36582812,8.34333333 Z M9.92629687,7.97263158 C9.92629687,8.68666667 9.36185937,9.22508772 8.66559375,9.22508772 L5.19715625,9.22508772 C4.50089062,9.22508772 4.05332812,8.7345614 4.05332812,8.02070175 L4.05332812,5.19561404 L4.05332812,4.81666667 C4.05332812,4.10263158 6.0479375,1.23929825 6.56132812,1.06385965 C7.07454687,0.888421053 7.37240625,0.848070175 7.37240625,0.848070175 L7.0159375,3.43561404 L9.007625,3.43561404 C9.7040625,3.43561404 10.2685,4.04017544 10.2685,4.75438596 L9.92629687,7.97263158 Z" id="Shape"></path>
                <path d="M9.20871875,6.85017544 C9.11435938,6.84350877 9.03134375,6.91473684 9.02378125,7.01140351 L8.960875,7.79701754 C8.960875,8.22491228 8.65115625,8.52350877 8.25584375,8.52350877 L5.544,8.52350877 C5.449125,8.52350877 5.372125,8.60192982 5.372125,8.69894737 C5.372125,8.79596491 5.449125,8.87438596 5.544,8.87438596 L8.25584375,8.87438596 C8.83403125,8.87438596 9.304625,8.41105263 9.30410938,7.81070175 L9.3665,7.02052632 C9.3740625,6.92403509 9.30342188,6.85789474 9.20871875,6.85017544 Z" id="Shape"></path>
                <path d="M9.37079687,5.79017544 C9.27660937,5.77947368 9.191875,5.84964912 9.18173437,5.94596491 L9.14185937,6.3277193 C9.13154687,6.42421053 9.19995312,6.51052632 9.2943125,6.52087719 C9.30067187,6.52157895 9.3066875,6.52192982 9.312875,6.52192982 C9.39967187,6.52192982 9.47409375,6.45508772 9.48354687,6.36508772 L9.52342187,5.98333333 C9.53373437,5.88684211 9.46515625,5.80052632 9.37079687,5.79017544 Z" id="Shape"></path>
                <path d="M2.16270312,8.07017544 C2.06782812,8.07017544 1.99082812,8.14859649 1.99082812,8.24561404 L1.99082812,8.59649123 C1.99082812,8.69350877 2.06782812,8.77192982 2.16270312,8.77192982 C2.25757812,8.77192982 2.33457812,8.69350877 2.33457812,8.59649123 L2.33457812,8.24561404 C2.33457812,8.14859649 2.25757812,8.07017544 2.16270312,8.07017544 Z" id="Shape"></path>
            </g>
        </g>
    </g>
</svg>